HIERARCHY
ROOT hip
{
  OFFSET 0 90.174 2.4664
  CHANNELS 6 Xposition Yposition Zposition Zrotation Xrotation Yrotation
  JOINT abdomen
  {
    OFFSET 0 -1.186 -1.5018
    CHANNELS 6 Xposition Yposition Zposition Zrotation Xrotation Yrotation
    JOINT abdomen2
    {
      OFFSET 0 9.964 0.2134
      CHANNELS 6 Xposition Yposition Zposition Zrotation Xrotation Yrotation
      JOINT chest
      {
        OFFSET 0 13.134 -3.2573
        CHANNELS 6 Xposition Yposition Zposition Zrotation Xrotation Yrotation
        JOINT neck
        {
          OFFSET 0 20.686 -1.6905
          CHANNELS 6 Xposition Yposition Zposition Zrotation Xrotation Yrotation
          JOINT head
          {
            OFFSET 0 7.238 -0.1237
            CHANNELS 6 Xposition Yposition Zposition Zrotation Xrotation Yrotation
            End Site
            {
              OFFSET 0 0 0
            }
          }
        }
        JOINT lCollar
        {
          OFFSET 1.7069 20.075 5.0056
          CHANNELS 6 Xposition Yposition Zposition Zrotation Xrotation Yrotation
          JOINT lShldr
          {
            OFFSET 13.6458 -0.047 -4.849
            CHANNELS 6 Xposition Yposition Zposition Zrotation Xrotation Yrotation
            JOINT lForeArm
            {
              OFFSET 28.3255 -0.9759 2.2888
              CHANNELS 6 Xposition Yposition Zposition Zrotation Xrotation Yrotation
              JOINT lHand
              {
                OFFSET 22.1583 -0.53 10.8316
                CHANNELS 6 Xposition Yposition Zposition Zrotation Xrotation Yrotation
                JOINT lThumb1
                {
                  OFFSET 0.786 0.112 2.5817
                  CHANNELS 6 Xposition Yposition Zposition Zrotation Xrotation Yrotation
                  JOINT lThumb2
                  {
                    OFFSET 0.3601 -0.878 4.2331
                    CHANNELS 6 Xposition Yposition Zposition Zrotation Xrotation Yrotation
                    JOINT lThumb2_End
                    {
                      OFFSET 1.8127 -1.216 2.2227
                      CHANNELS 6 Xposition Yposition Zposition Zrotation Xrotation Yrotation
                      End Site
                      {
                        OFFSET 0.0181 -0.0122 0.0222
                      }
                    }
                  }
                }
                JOINT lCarpal1
                {
                  OFFSET 0.9571 1.114 1.7695
                  CHANNELS 6 Xposition Yposition Zposition Zrotation Xrotation Yrotation
                  JOINT lIndex1
                  {
                    OFFSET 4.1246 0.487 4.1451
                    CHANNELS 6 Xposition Yposition Zposition Zrotation Xrotation Yrotation
                    JOINT lIndex2
                    {
                      OFFSET 3.4052 -1.454 2.7682
                      CHANNELS 6 Xposition Yposition Zposition Zrotation Xrotation Yrotation
                      JOINT lIndex2_End
                      {
                        OFFSET 1.4531 -1.795 1.2713
                        CHANNELS 6 Xposition Yposition Zposition Zrotation Xrotation Yrotation
                        End Site
                        {
                          OFFSET 0.0145 -0.0179 0.0127
                        }
                      }
                    }
                  }
                  JOINT lMid1
                  {
                    OFFSET 5.6954 0.21 2.1184
                    CHANNELS 6 Xposition Yposition Zposition Zrotation Xrotation Yrotation
                    JOINT lMid2
                    {
                      OFFSET 3.9766 -1.54 2.3863
                      CHANNELS 6 Xposition Yposition Zposition Zrotation Xrotation Yrotation
                      JOINT lMid2_End
                      {
                        OFFSET 1.4042 -1.926 1.125
                        CHANNELS 6 Xposition Yposition Zposition Zrotation Xrotation Yrotation
                        End Site
                        {
                          OFFSET 0.014 -0.0193 0.0113
                        }
                      }
                    }
                  }
                }
                JOINT lCarpal2
                {
                  OFFSET 2.0956 0.66 -0.3894
                  CHANNELS 6 Xposition Yposition Zposition Zrotation Xrotation Yrotation
                  JOINT lRing1
                  {
                    OFFSET 5.0395 -0.09 2.4971
                    CHANNELS 6 Xposition Yposition Zposition Zrotation Xrotation Yrotation
                    JOINT lRing2
                    {
                      OFFSET 3.7921 -1.552 1.4806
                      CHANNELS 6 Xposition Yposition Zposition Zrotation Xrotation Yrotation
                      JOINT lRing2_End
                      {
                        OFFSET 1.4655 -1.808 0.9609
                        CHANNELS 6 Xposition Yposition Zposition Zrotation Xrotation Yrotation
                        End Site
                        {
                          OFFSET 0.0147 -0.0181 0.0096
                        }
                      }
                    }
                  }
                  JOINT lPinky1
                  {
                    OFFSET 4.9141 -1.269 0.3591
                    CHANNELS 6 Xposition Yposition Zposition Zrotation Xrotation Yrotation
                    JOINT lPinky2
                    {
                      OFFSET 3.1477 -1.685 0.8462
                      CHANNELS 6 Xposition Yposition Zposition Zrotation Xrotation Yrotation
                      JOINT lPinky2_End
                      {
                        OFFSET 0.8055 -1.585 0.7955
                        CHANNELS 6 Xposition Yposition Zposition Zrotation Xrotation Yrotation
                        End Site
                        {
                          OFFSET 0.0081 -0.0158 0.008
                        }
                      }
                    }
                  }
                }
              }
            }
          }
        }
        JOINT rCollar
        {
          OFFSET -1.7069 20.075 5.0056
          CHANNELS 6 Xposition Yposition Zposition Zrotation Xrotation Yrotation
          JOINT rShldr
          {
            OFFSET -13.6458 -0.047 -4.849
            CHANNELS 6 Xposition Yposition Zposition Zrotation Xrotation Yrotation
            JOINT rForeArm
            {
              OFFSET -28.3255 -0.9759 2.2888
              CHANNELS 6 Xposition Yposition Zposition Zrotation Xrotation Yrotation
              JOINT rHand
              {
                OFFSET -22.1583 -0.53 10.8316
                CHANNELS 6 Xposition Yposition Zposition Zrotation Xrotation Yrotation
                JOINT rThumb1
                {
                  OFFSET -0.786 0.112 2.5817
                  CHANNELS 6 Xposition Yposition Zposition Zrotation Xrotation Yrotation
                  JOINT rThumb2
                  {
                    OFFSET -0.3601 -0.878 4.2331
                    CHANNELS 6 Xposition Yposition Zposition Zrotation Xrotation Yrotation
                    JOINT rThumb2_End
                    {
                      OFFSET -1.8127 -1.216 2.2227
                      CHANNELS 6 Xposition Yposition Zposition Zrotation Xrotation Yrotation
                      End Site
                      {
                        OFFSET -0.0181 -0.0122 0.0222
                      }
                    }
                  }
                }
                JOINT rCarpal1
                {
                  OFFSET -0.9571 1.114 1.7695
                  CHANNELS 6 Xposition Yposition Zposition Zrotation Xrotation Yrotation
                  JOINT rIndex1
                  {
                    OFFSET -4.1246 0.487 4.1451
                    CHANNELS 6 Xposition Yposition Zposition Zrotation Xrotation Yrotation
                    JOINT rIndex2
                    {
                      OFFSET -3.4052 -1.454 2.7682
                      CHANNELS 6 Xposition Yposition Zposition Zrotation Xrotation Yrotation
                      JOINT rIndex2_End
                      {
                        OFFSET -1.4531 -1.795 1.2713
                        CHANNELS 6 Xposition Yposition Zposition Zrotation Xrotation Yrotation
                        End Site
                        {
                          OFFSET -0.0145 -0.018 0.0127
                        }
                      }
                    }
                  }
                  JOINT rMid1
                  {
                    OFFSET -5.6954 0.21 2.1184
                    CHANNELS 6 Xposition Yposition Zposition Zrotation Xrotation Yrotation
                    JOINT rMid2
                    {
                      OFFSET -3.9766 -1.54 2.3863
                      CHANNELS 6 Xposition Yposition Zposition Zrotation Xrotation Yrotation
                      JOINT rMid2_End
                      {
                        OFFSET -1.4042 -1.926 1.125
                        CHANNELS 6 Xposition Yposition Zposition Zrotation Xrotation Yrotation
                        End Site
                        {
                          OFFSET -0.014 -0.0193 0.0113
                        }
                      }
                    }
                  }
                }
                JOINT rCarpal2
                {
                  OFFSET -2.0956 0.66 -0.3894
                  CHANNELS 6 Xposition Yposition Zposition Zrotation Xrotation Yrotation
                  JOINT rRing1
                  {
                    OFFSET -5.0395 -0.09 2.4971
                    CHANNELS 6 Xposition Yposition Zposition Zrotation Xrotation Yrotation
                    JOINT rRing2
                    {
                      OFFSET -3.7921 -1.552 1.4806
                      CHANNELS 6 Xposition Yposition Zposition Zrotation Xrotation Yrotation
                      JOINT rRing2_End
                      {
                        OFFSET -1.4655 -1.808 0.9609
                        CHANNELS 6 Xposition Yposition Zposition Zrotation Xrotation Yrotation
                        End Site
                        {
                          OFFSET -0.0147 -0.0181 0.0096
                        }
                      }
                    }
                  }
                  JOINT rPinky1
                  {
                    OFFSET -4.9141 -1.269 0.3592
                    CHANNELS 6 Xposition Yposition Zposition Zrotation Xrotation Yrotation
                    JOINT rPinky2
                    {
                      OFFSET -3.1477 -1.685 0.8462
                      CHANNELS 6 Xposition Yposition Zposition Zrotation Xrotation Yrotation
                      JOINT rPinky2_End
                      {
                        OFFSET -0.8055 -1.585 0.7955
                        CHANNELS 6 Xposition Yposition Zposition Zrotation Xrotation Yrotation
                        End Site
                        {
                          OFFSET -0.0081 -0.0158 0.008
                        }
                      }
                    }
                  }
                }
              }
            }
          }
        }
      }
    }
  }
  JOINT lThigh
  {
    OFFSET 8.367 -8.2066 0.5982
    CHANNELS 6 Xposition Yposition Zposition Zrotation Xrotation Yrotation
    JOINT lShin
    {
      OFFSET 2.1923 -43.463 -0.4932
      CHANNELS 6 Xposition Yposition Zposition Zrotation Xrotation Yrotation
      JOINT lFoot
      {
        OFFSET 0.7333 -45.8593 -2.6451
        CHANNELS 6 Xposition Yposition Zposition Zrotation Xrotation Yrotation
        End Site
        {
          OFFSET 2.6618 -4.2699 12.3931
        }
      }
    }
  }
  JOINT rThigh
  {
    OFFSET -8.367 -8.2066 0.5982
    CHANNELS 6 Xposition Yposition Zposition Zrotation Xrotation Yrotation
    JOINT rShin
    {
      OFFSET -2.1923 -43.463 -0.4931
      CHANNELS 6 Xposition Yposition Zposition Zrotation Xrotation Yrotation
      JOINT rFoot
      {
        OFFSET -0.7333 -45.8593 -2.6451
        CHANNELS 6 Xposition Yposition Zposition Zrotation Xrotation Yrotation
        End Site
        {
          OFFSET -2.6618 -4.2699 12.3931
        }
      }
    }
  }
}
MOTION
Frames:	4
Frame Time:	0.0333333
0 90.174 2.4664 0 0 -0 0 -1.186 -1.5018 0 0 -0 0 9.964 0.2134 0 0 -0 0 13.134 -3.2573 0 0 -0 0 20.686 -1.6905 0 0 -0 0 7.238 -0.1237 0 0 -0 1.7069 20.075 5.0056 0 0 -0 13.6458 -0.047 -4.849 1.66051 0.0835086 5.75766 28.3255 -0.9759 2.2888 -0.0175111 0.895433 15.7816 22.1583 -0.53 10.8316 7.95139e-016 -1.98785e-016 -0 0.786 0.112 2.5817 5.46658e-016 -3.97569e-016 -0 0.3601 -0.878 4.2331 5.96354e-016 0 -0 1.8127 -1.216 2.2227 3.97569e-016 1.98785e-016 9.54166e-015 0.9571 1.114 1.7695 1.49089e-016 -3.97569e-016 -0 4.1246 0.487 4.1451 6.4605e-016 0 3.18055e-015 3.4052 -1.454 2.7682 5.96354e-016 0 3.18055e-015 1.4531 -1.795 1.2713 8.94531e-016 -1.98785e-016 6.36111e-015 5.6954 0.21 2.1184 6.4605e-016 0 3.18055e-015 3.9766 -1.54 2.3863 5.96354e-016 0 3.18055e-015 1.4042 -1.926 1.125 8.94531e-016 -1.98785e-016 6.36111e-015 2.0956 0.66 -0.3894 1.49089e-016 -3.97569e-016 -0 5.0395 -0.09 2.4971 6.4605e-016 0 3.18055e-015 3.7921 -1.552 1.4806 5.96354e-016 0 3.18055e-015 1.4655 -1.808 0.9609 8.94531e-016 -1.98785e-016 6.36111e-015 4.9141 -1.269 0.3591 6.4605e-016 0 3.18055e-015 3.1477 -1.685 0.8462 5.96354e-016 0 3.18055e-015 0.8055 -1.585 0.7955 8.94531e-016 -1.98785e-016 6.36111e-015 -1.7069 20.075 5.0056 0 0 -0 -13.6458 -0.047 -4.849 -1.4496 0.0636048 -5.0245 -28.3255 -0.9759 2.2888 -1.74811 1.20616 -16.8394 -22.1583 -0.53 10.8316 -1.19271e-015 1.98785e-016 -3.18055e-015 -0.786 0.112 2.5817 -3.97569e-016 1.98785e-016 -3.18055e-015 -0.3601 -0.878 4.2331 -2.98177e-016 1.98785e-016 -3.18055e-015 -1.8127 -1.216 2.2227 -2.98177e-016 3.97569e-016 -0 -0.9571 1.114 1.7695 4.96962e-016 0 -6.36111e-015 -4.1246 0.487 4.1451 -9.93923e-017 3.97569e-016 -0 -3.4052 -1.454 2.7682 -8.94531e-016 5.96354e-016 -0 -1.4531 -1.795 1.2713 -3.97569e-016 3.97569e-016 -0 -5.6954 0.21 2.1184 -9.93923e-017 3.97569e-016 -0 -3.9766 -1.54 2.3863 -8.94531e-016 5.96354e-016 -0 -1.4042 -1.926 1.125 -3.97569e-016 3.97569e-016 -0 -2.0956 0.66 -0.3894 4.96962e-016 0 -6.36111e-015 -5.0395 -0.09 2.4971 -9.93923e-017 3.97569e-016 -0 -3.7921 -1.552 1.4806 -8.94531e-016 5.96354e-016 -0 -1.4655 -1.808 0.9609 -3.97569e-016 3.97569e-016 -0 -4.9141 -1.269 0.3592 -9.93923e-017 3.97569e-016 -0 -3.1477 -1.685 0.8462 -8.94531e-016 5.96354e-016 -0 -0.8055 -1.585 0.7955 -3.97569e-016 3.97569e-016 -0 8.367 -8.2066 0.5982 -4.66115 -1.03232 0.120763 2.1923 -43.463 -0.4932 0.00990601 1.55097 0.177175 0.7333 -45.8593 -2.6451 4.65196 -0.54114 -0.255042 -8.367 -8.2066 0.5982 4.66115 -1.03222 -0.120763 -2.1923 -43.463 -0.4931 -0.00990459 1.5509 -0.177176 -0.7333 -45.8593 -2.6451 -4.65196 -0.541171 0.255041 
-0.519412 82.2453 -10.0478 -180 -82.9837 -180 0 -1.186 -1.5018 -0.0212627 3.80204 -0.109886 5.55112e-017 9.964 0.2134 -0.0353156 7.6041 -0.21908 -5.55112e-017 13.134 -3.2573 -0.0353157 7.6041 -0.21908 -8.32667e-017 20.686 -1.6905 4.45712e-006 17.9984 -1.81108e-006 0 7.238 -0.1237 2.19173e-008 8.99857 1.26726e-007 1.7069 20.075 5.0056 -9.63568 34.7484 1.4902 13.6458 -0.047 -4.849 -69.5846 -6.13808 -58.5301 28.3255 -0.9759 2.2888 -28.1807 -19.8574 -13.9123 22.1583 -0.53 10.8316 0.846693 31.9969 -9.98137 0.786 0.112 2.5817 -3.18055e-015 -4.77083e-015 1.27222e-014 0.3601 -0.878 4.2331 -1.59028e-015 -3.97569e-015 -6.36111e-015 1.8127 -1.216 2.2227 -1.59028e-015 -7.95139e-016 -0 0.9571 1.114 1.7695 -3.18055e-015 -3.97569e-015 1.27222e-014 4.1246 0.487 4.1451 -7.95139e-016 -2.38542e-015 3.18055e-015 3.4052 -1.454 2.7682 -7.95139e-016 -1.59028e-015 -0 1.4531 -1.795 1.2713 2.64834e-031 -4.77083e-015 3.18055e-015 5.6954 0.21 2.1184 -7.95139e-016 -2.38542e-015 3.18055e-015 3.9766 -1.54 2.3863 -7.95139e-016 -1.59028e-015 -0 1.4042 -1.926 1.125 2.64834e-031 -4.77083e-015 3.18055e-015 2.0956 0.66 -0.3894 -3.18055e-015 -3.97569e-015 1.27222e-014 5.0395 -0.09 2.4971 -7.95139e-016 -2.38542e-015 3.18055e-015 3.7921 -1.552 1.4806 -7.95139e-016 -1.59028e-015 -0 1.4655 -1.808 0.9609 2.64834e-031 -4.77083e-015 3.18055e-015 4.9141 -1.269 0.3591 -7.95139e-016 -2.38542e-015 3.18055e-015 3.1477 -1.685 0.8462 -7.95139e-016 -1.59028e-015 -0 0.8055 -1.585 0.7955 2.64834e-031 -4.77083e-015 3.18055e-015 -1.7069 20.075 5.0056 -35.6791 -0.447078 -12.7723 -13.6458 -0.047 -4.849 79.7315 -4.8912 -52.6432 -28.3255 -0.9759 2.2888 -52.535 37.4873 89.3724 -22.1583 -0.53 10.8316 6.66187 14.507 -10.0805 -0.786 0.112 2.5817 4.77083e-015 -1.19271e-015 -0 -0.3601 -0.878 4.2331 -7.79767e-007 -1.46227e-006 3.23243e-007 -1.8127 -1.216 2.2227 -3.18055e-015 -6.75868e-015 -3.18055e-015 -0.9571 1.114 1.7695 4.77083e-015 -1.98785e-015 -0 -4.1246 0.487 4.1451 2.38542e-015 -2.78299e-015 9.54166e-015 -3.4052 -1.454 2.7682 -7.79767e-007 -1.46227e-006 3.23243e-007 -1.4531 -1.795 1.2713 1.59028e-015 7.95139e-016 6.36111e-015 -5.6954 0.21 2.1184 2.38542e-015 -2.78299e-015 9.54166e-015 -3.9766 -1.54 2.3863 -7.79767e-007 -1.46227e-006 3.23243e-007 -1.4042 -1.926 1.125 1.59028e-015 7.95139e-016 6.36111e-015 -2.0956 0.66 -0.3894 4.77083e-015 -1.98785e-015 -0 -5.0395 -0.09 2.4971 2.38542e-015 -2.78299e-015 9.54166e-015 -3.7921 -1.552 1.4806 -7.79767e-007 -1.46227e-006 3.23243e-007 -1.4655 -1.808 0.9609 1.59028e-015 7.95139e-016 6.36111e-015 -4.9141 -1.269 0.3592 2.38542e-015 -2.78299e-015 9.54166e-015 -3.1477 -1.685 0.8462 -7.79767e-007 -1.46227e-006 3.23243e-007 -0.8055 -1.585 0.7955 1.59028e-015 7.95139e-016 6.36111e-015 8.367 -8.2066 0.5982 13.7114 4.61247 1.82844 2.1923 -43.463 -0.4932 -0.250291 10.8156 0.78341 0.7333 -45.8593 -2.6451 11.0896 13.582 -1.63419 -8.367 -8.2066 0.5982 -7.16734 -10.8447 -8.50364 -2.1923 -43.463 -0.4931 3.33591 41.3294 -3.69234 -0.7333 -45.8593 -2.6451 -14.3103 19.6631 5.22826 
-0.520229 82.105 -10.098 -180 -83.4841 -180 0 -1.186 -1.5018 -0.0227982 3.877 -0.110315 -5.55112e-017 9.964 0.2134 -0.0382264 7.754 -0.219838 -1.38778e-017 13.134 -3.2573 -0.0382264 7.75405 -0.219839 5.55112e-017 20.686 -1.6905 -0.0504929 17.7458 -0.00440944 2.77556e-017 7.238 -0.1237 0.0121871 8.93914 -0.0741346 1.7069 20.075 5.0056 -9.41333 34.0898 1.36367 13.6458 -0.047 -4.849 -69.5847 -6.13805 -58.5302 28.3255 -0.9759 2.2888 -28.3356 -19.7683 -14.0749 22.1583 -0.53 10.8316 0.846686 31.9969 -9.98137 0.786 0.112 2.5817 -1.43125e-014 -1.59028e-015 -3.18055e-015 0.3601 -0.878 4.2331 -5.56597e-015 0 -3.18055e-015 1.8127 -1.216 2.2227 -3.97569e-015 -7.95139e-016 -3.18055e-015 0.9571 1.114 1.7695 -1.11319e-014 0 -0 4.1246 0.487 4.1451 2.38542e-015 -3.18055e-015 9.54166e-015 3.4052 -1.454 2.7682 -3.97569e-015 7.95139e-016 -3.18055e-015 1.4531 -1.795 1.2713 -3.97569e-015 -3.18055e-015 -0 5.6954 0.21 2.1184 2.38542e-015 -3.18055e-015 9.54166e-015 3.9766 -1.54 2.3863 -3.97569e-015 7.95139e-016 -3.18055e-015 1.4042 -1.926 1.125 -3.97569e-015 -3.18055e-015 -0 2.0956 0.66 -0.3894 -1.11319e-014 0 -0 5.0395 -0.09 2.4971 2.38542e-015 -3.18055e-015 9.54166e-015 3.7921 -1.552 1.4806 -3.97569e-015 7.95139e-016 -3.18055e-015 1.4655 -1.808 0.9609 -3.97569e-015 -3.18055e-015 -0 4.9141 -1.269 0.3591 2.38542e-015 -3.18055e-015 9.54166e-015 3.1477 -1.685 0.8462 -3.97569e-015 7.95139e-016 -3.18055e-015 0.8055 -1.585 0.7955 -3.97569e-015 -3.18055e-015 -0 -1.7069 20.075 5.0056 -34.1276 -0.127021 -12.5789 -13.6458 -0.047 -4.849 79.8099 -4.6625 -51.747 -28.3255 -0.9759 2.2888 -50.9212 35.9813 87.2297 -22.1583 -0.53 10.8316 6.65006 15.4779 -9.73845 -0.786 0.112 2.5817 -3.02409e-006 -2.14669e-006 8.8995e-007 -0.3601 -0.878 4.2331 -2.92699e-006 1.5606e-006 5.01665e-007 -1.8127 -1.216 2.2227 -2.24379e-006 -6.83197e-007 5.70391e-007 -0.9571 1.114 1.7695 -1.59028e-015 5.1684e-015 -0 -4.1246 0.487 4.1451 -3.02409e-006 -2.14669e-006 8.8995e-007 -3.4052 -1.454 2.7682 -2.92699e-006 1.5606e-006 5.01665e-007 -1.4531 -1.795 1.2713 -2.24379e-006 -6.83197e-007 5.70391e-007 -5.6954 0.21 2.1184 -3.02409e-006 -2.14669e-006 8.8995e-007 -3.9766 -1.54 2.3863 -2.92699e-006 1.5606e-006 5.01665e-007 -1.4042 -1.926 1.125 -2.24379e-006 -6.83197e-007 5.70391e-007 -2.0956 0.66 -0.3894 -1.59028e-015 5.1684e-015 -0 -5.0395 -0.09 2.4971 -3.02409e-006 -2.14669e-006 8.8995e-007 -3.7921 -1.552 1.4806 -2.92699e-006 1.5606e-006 5.01665e-007 -1.4655 -1.808 0.9609 -2.24379e-006 -6.83197e-007 5.70391e-007 -4.9141 -1.269 0.3592 -3.02409e-006 -2.14669e-006 8.8995e-007 -3.1477 -1.685 0.8462 -2.92699e-006 1.5606e-006 5.01665e-007 -0.8055 -1.585 0.7955 -2.24379e-006 -6.83197e-007 5.70391e-007 8.367 -8.2066 0.5982 13.7117 4.0844 1.81616 2.1923 -43.463 -0.4932 -0.249327 10.7954 0.794211 0.7333 -45.8593 -2.6451 11.1078 13.8426 -1.55042 -8.367 -8.2066 0.5982 -7.13299 -11.4591 -8.42877 -2.1923 -43.463 -0.4931 3.33549 41.3304 -3.69956 -0.7333 -45.8593 -2.6451 -14.2632 19.8795 5.12566 
-0.521054 81.9647 -10.1477 -180 -83.9846 -180 0 -1.186 -1.5018 -0.0243305 3.9521 -0.110757 -5.55112e-017 9.964 0.2134 -0.0411289 7.90425 -0.220617 4.16334e-017 13.134 -3.2573 -0.041129 7.90423 -0.220617 -5.55112e-017 20.686 -1.6905 -0.100986 17.4935 -0.00904868 5.55112e-017 7.238 -0.1237 0.0242972 8.87969 -0.148261 1.7069 20.075 5.0056 -9.1943 33.4303 1.2411 13.6458 -0.047 -4.849 -69.5847 -6.13805 -58.5301 28.3255 -0.9759 2.2888 -28.4902 -19.6788 -14.2371 22.1583 -0.53 10.8316 0.846678 31.9969 -9.98138 0.786 0.112 2.5817 -1.83279e-006 1.36575e-006 1.34021e-007 0.3601 -0.878 4.2331 -0 -7.95139e-016 -0 1.8127 -1.216 2.2227 -4.77083e-015 -3.97569e-015 -3.18055e-015 0.9571 1.114 1.7695 -1.59028e-015 -1.59028e-015 -6.36111e-015 4.1246 0.487 4.1451 -1.83279e-006 1.36575e-006 1.34021e-007 3.4052 -1.454 2.7682 7.95139e-016 0 9.54166e-015 1.4531 -1.795 1.2713 2.38542e-015 -3.18055e-015 -0 5.6954 0.21 2.1184 -1.83279e-006 1.36575e-006 1.34021e-007 3.9766 -1.54 2.3863 7.95139e-016 0 9.54166e-015 1.4042 -1.926 1.125 2.38542e-015 -3.18055e-015 -0 2.0956 0.66 -0.3894 -1.59028e-015 -1.59028e-015 -6.36111e-015 5.0395 -0.09 2.4971 -1.83279e-006 1.36575e-006 1.34021e-007 3.7921 -1.552 1.4806 7.95139e-016 0 9.54166e-015 1.4655 -1.808 0.9609 2.38542e-015 -3.18055e-015 -0 4.9141 -1.269 0.3591 -1.83279e-006 1.36575e-006 1.34021e-007 3.1477 -1.685 0.8462 7.95139e-016 0 9.54166e-015 0.8055 -1.585 0.7955 2.38542e-015 -3.18055e-015 -0 -1.7069 20.075 5.0056 -32.5723 0.199185 -12.3936 -13.6458 -0.047 -4.849 79.8846 -4.4324 -50.8505 -28.3255 -0.9759 2.2888 -49.4003 34.4219 85.1701 -22.1583 -0.53 10.8316 6.63211 16.45 -9.39406 -0.786 0.112 2.5817 3.73425e-007 1.45625e-006 -3.12079e-006 -0.3601 -0.878 4.2331 -1.58901e-030 -7.15625e-015 -1.27222e-014 -1.8127 -1.216 2.2227 -2.38542e-015 -3.97569e-015 -1.90833e-014 -0.9571 1.114 1.7695 -7.95139e-016 1.98785e-015 6.36111e-015 -4.1246 0.487 4.1451 3.73425e-007 1.45625e-006 -3.12079e-006 -3.4052 -1.454 2.7682 -7.95139e-016 -5.56597e-015 -6.36111e-015 -1.4531 -1.795 1.2713 7.95139e-016 -7.95139e-016 -6.36111e-015 -5.6954 0.21 2.1184 3.73425e-007 1.45625e-006 -3.12079e-006 -3.9766 -1.54 2.3863 -7.95139e-016 -5.56597e-015 -6.36111e-015 -1.4042 -1.926 1.125 7.95139e-016 -7.95139e-016 -6.36111e-015 -2.0956 0.66 -0.3894 -7.95139e-016 1.98785e-015 6.36111e-015 -5.0395 -0.09 2.4971 3.73425e-007 1.45625e-006 -3.12079e-006 -3.7921 -1.552 1.4806 -7.95139e-016 -5.56597e-015 -6.36111e-015 -1.4655 -1.808 0.9609 7.95139e-016 -7.95139e-016 -6.36111e-015 -4.9141 -1.269 0.3592 3.73425e-007 1.45625e-006 -3.12079e-006 -3.1477 -1.685 0.8462 -7.95139e-016 -5.56597e-015 -6.36111e-015 -0.8055 -1.585 0.7955 7.95139e-016 -7.95139e-016 -6.36111e-015 8.367 -8.2066 0.5982 13.7121 3.55598 1.80385 2.1923 -43.463 -0.4932 -0.248414 10.7756 0.805045 0.7333 -45.8593 -2.6451 11.1257 14.1029 -1.46662 -8.367 -8.2066 0.5982 -7.09785 -12.0735 -8.35327 -2.1923 -43.463 -0.4931 3.33512 41.3313 -3.70677 -0.7333 -45.8593 -2.6451 -14.2155 20.0957 5.02272 
